<?xml version="1.0" encoding="UTF-8" standalone="no"?>
<!-- Generator: Adobe Illustrator 16.0.0, SVG Export Plug-In . SVG Version: 6.00 Build 0)  -->

<svg
   xmlns:dc="http://purl.org/dc/elements/1.1/"
   xmlns:cc="http://creativecommons.org/ns#"
   xmlns:rdf="http://www.w3.org/1999/02/22-rdf-syntax-ns#"
   xmlns:svg="http://www.w3.org/2000/svg"
   xmlns="http://www.w3.org/2000/svg"
   xmlns:sodipodi="http://sodipodi.sourceforge.net/DTD/sodipodi-0.dtd"
   xmlns:inkscape="http://www.inkscape.org/namespaces/inkscape"
   version="1.1"
   id="Capa_1"
   x="0px"
   y="0px"
   width="45.583px"
   height="45.583px"
   viewBox="0 0 45.583 45.583"
   xml:space="preserve"
   inkscape:version="0.91 r13725"
   sodipodi:docname="three-dots.svg"
   style="enable-background:new 0 0 45.583 45.583;"><metadata
     id="metadata47"><rdf:RDF><cc:Work
         rdf:about=""><dc:format>image/svg+xml</dc:format><dc:type
           rdf:resource="http://purl.org/dc/dcmitype/StillImage" /><dc:title></dc:title></cc:Work></rdf:RDF></metadata><defs
     id="defs45" /><sodipodi:namedview
     pagecolor="#ffffff"
     bordercolor="#666666"
     borderopacity="1"
     objecttolerance="10"
     gridtolerance="10"
     guidetolerance="10"
     inkscape:pageopacity="0"
     inkscape:pageshadow="2"
     inkscape:window-width="1930"
     inkscape:window-height="1062"
     id="namedview43"
     showgrid="false"
     inkscape:zoom="5.1773687"
     inkscape:cx="22.7915"
     inkscape:cy="22.7915"
     inkscape:window-x="149"
     inkscape:window-y="79"
     inkscape:window-maximized="0"
     inkscape:current-layer="Capa_1" /><g
     id="g3"><g
       id="g5"><path
         d="M22.793,12.196c-3.361,0-6.078-2.729-6.078-6.099C16.715,2.73,19.432,0,22.793,0c3.353,0,6.073,2.729,6.073,6.097    C28.866,9.466,26.145,12.196,22.793,12.196z"
         id="path7" /><path
         d="M22.794,28.889c-3.361,0-6.079-2.729-6.079-6.099c0-3.366,2.717-6.099,6.078-6.099c3.353,0,6.073,2.732,6.075,6.099    C28.866,26.162,26.144,28.889,22.794,28.889z"
         id="path9" /><path
         d="M22.794,45.583c-3.361,0-6.079-2.729-6.079-6.099s2.717-6.098,6.078-6.098c3.353-0.002,6.073,2.729,6.073,6.098    S26.144,45.583,22.794,45.583z"
         id="path11" /></g></g><g
     id="g13" /><g
     id="g15" /><g
     id="g17" /><g
     id="g19" /><g
     id="g21" /><g
     id="g23" /><g
     id="g25" /><g
     id="g27" /><g
     id="g29" /><g
     id="g31" /><g
     id="g33" /><g
     id="g35" /><g
     id="g37" /><g
     id="g39" /><g
     id="g41" /></svg>