<?xml version="1.0" encoding="UTF-8" standalone="no"?>
<!-- Generator: Adobe Illustrator 16.0.0, SVG Export Plug-In . SVG Version: 6.00 Build 0)  -->

<svg
   xmlns:dc="http://purl.org/dc/elements/1.1/"
   xmlns:cc="http://creativecommons.org/ns#"
   xmlns:rdf="http://www.w3.org/1999/02/22-rdf-syntax-ns#"
   xmlns:svg="http://www.w3.org/2000/svg"
   xmlns="http://www.w3.org/2000/svg"
   xmlns:sodipodi="http://sodipodi.sourceforge.net/DTD/sodipodi-0.dtd"
   xmlns:inkscape="http://www.inkscape.org/namespaces/inkscape"
   version="1.1"
   id="Capa_1"
   x="0px"
   y="0px"
   width="485.212px"
   height="485.212px"
   viewBox="0 0 485.212 485.212"
   style="enable-background:new 0 0 485.212 485.212;"
   xml:space="preserve"
   inkscape:version="0.91 r13725"
   sodipodi:docname="printer-white.svg"><metadata
     id="metadata49"><rdf:RDF><cc:Work
         rdf:about=""><dc:format>image/svg+xml</dc:format><dc:type
           rdf:resource="http://purl.org/dc/dcmitype/StillImage" /><dc:title></dc:title></cc:Work></rdf:RDF></metadata><defs
     id="defs47" /><sodipodi:namedview
     pagecolor="#ffffff"
     bordercolor="#666666"
     borderopacity="1"
     objecttolerance="10"
     gridtolerance="10"
     guidetolerance="10"
     inkscape:pageopacity="0"
     inkscape:pageshadow="2"
     inkscape:window-width="640"
     inkscape:window-height="480"
     id="namedview45"
     showgrid="false"
     inkscape:zoom="0.48638533"
     inkscape:cx="242.606"
     inkscape:cy="242.606"
     inkscape:window-x="0"
     inkscape:window-y="0"
     inkscape:window-maximized="0"
     inkscape:current-layer="Capa_1" /><g
     id="g3"
     style="fill:#ffffff"><g
       id="g5"
       style="fill:#ffffff"><rect
         x="151.636"
         y="363.906"
         width="151.618"
         height="30.331"
         id="rect7"
         style="fill:#ffffff" /><path
         d="M121.312,30.327h242.595v60.651h30.321V30.327C394.229,13.595,380.666,0,363.907,0H121.312    c-16.748,0-30.327,13.595-30.327,30.327v60.651h30.327V30.327z"
         id="path9"
         style="fill:#ffffff" /><rect
         x="151.636"
         y="303.257"
         width="181.939"
         height="30.327"
         id="rect11"
         style="fill:#ffffff" /><path
         d="M454.882,121.304H30.334c-16.748,0-30.327,13.591-30.327,30.324v181.956c0,16.759,13.579,30.321,30.327,30.321h60.651    v90.98c0,16.764,13.579,30.326,30.327,30.326h242.595c16.759,0,30.321-13.562,30.321-30.326v-90.98h60.653    c16.76,0,30.322-13.562,30.322-30.321V151.628C485.204,134.895,471.642,121.304,454.882,121.304z M363.907,454.886H121.312V272.93    h242.595V454.886z M424.551,212.282c-16.76,0-30.322-13.564-30.322-30.327c0-16.731,13.562-30.327,30.322-30.327    c16.765,0,30.331,13.595,30.331,30.327C454.882,198.717,441.315,212.282,424.551,212.282z"
         id="path13"
         style="fill:#ffffff" /></g></g><g
     id="g15" /><g
     id="g17" /><g
     id="g19" /><g
     id="g21" /><g
     id="g23" /><g
     id="g25" /><g
     id="g27" /><g
     id="g29" /><g
     id="g31" /><g
     id="g33" /><g
     id="g35" /><g
     id="g37" /><g
     id="g39" /><g
     id="g41" /><g
     id="g43" /></svg>